<svg xmlns="http://www.w3.org/2000/svg" xmlns:xlink="http://www.w3.org/1999/xlink" contentStyleType="text/css" height="620px" preserveAspectRatio="none" style="width:4704px;height:620px;background:#FFFFFF;" version="1.1" viewBox="0 0 4704 620" width="4704px" zoomAndPan="magnify"><defs/><g><!--class Chart2DContentViewModel--><g id="elem_Chart2DContentViewModel"><rect codeLine="1" fill="#F1F1F1" height="145.7813" id="Chart2DContentViewModel" rx="2.5" ry="2.5" style="stroke:#181818;stroke-width:0.5;" width="801" x="7" y="261.67"/><ellipse cx="309.75" cy="277.67" fill="#ADD1B2" rx="11" ry="11" style="stroke:#181818;stroke-width:1.0;"/><path d="M312.7188,283.3106 Q312.1406,283.6075 311.5,283.7481 Q310.8594,283.9044 310.1563,283.9044 Q307.6563,283.9044 306.3281,282.2638 Q305.0156,280.6075 305.0156,277.4825 Q305.0156,274.3575 306.3281,272.7013 Q307.6563,271.045 310.1563,271.045 Q310.8594,271.045 311.5,271.2013 Q312.1563,271.3575 312.7188,271.6544 L312.7188,274.3731 Q312.0938,273.795 311.5,273.5294 Q310.9063,273.2481 310.2813,273.2481 Q308.9375,273.2481 308.25,274.3263 Q307.5625,275.3888 307.5625,277.4825 Q307.5625,279.5763 308.25,280.6544 Q308.9375,281.7169 310.2813,281.7169 Q310.9063,281.7169 311.5,281.4513 Q312.0938,281.17 312.7188,280.5919 L312.7188,283.3106 Z " fill="#000000"/><text fill="#000000" font-family="sans-serif" font-size="14" lengthAdjust="spacing" textLength="187" x="330.25" y="282.5167">Chart2DContentViewModel</text><line style="stroke:#181818;stroke-width:0.5;" x1="8" x2="807" y1="293.67" y2="293.67"/><ellipse cx="18" cy="307.3184" fill="none" rx="3" ry="3" style="stroke:#038048;stroke-width:1.0;"/><text fill="#000000" font-family="sans-serif" font-size="14" lengthAdjust="spacing" textLength="126" x="27" y="310.6651">Title : string &#171;get&#187;</text><ellipse cx="18" cy="323.6153" fill="none" rx="3" ry="3" style="stroke:#038048;stroke-width:1.0;"/><text fill="#000000" font-family="sans-serif" font-size="14" lengthAdjust="spacing" textLength="169" x="27" y="326.962">AxisXLabel : string &#171;get&#187;</text><ellipse cx="18" cy="339.9122" fill="none" rx="3" ry="3" style="stroke:#038048;stroke-width:1.0;"/><text fill="#000000" font-family="sans-serif" font-size="14" lengthAdjust="spacing" textLength="169" x="27" y="343.2589">AxisYLabel : string &#171;get&#187;</text><ellipse cx="18" cy="356.2091" fill="none" rx="3" ry="3" style="stroke:#038048;stroke-width:1.0;"/><text fill="#000000" font-family="sans-serif" font-size="14" lengthAdjust="spacing" textLength="322" x="27" y="359.5557">RenderData : ICollection&lt;IRenderData&gt; &#171;get&#187;</text><line style="stroke:#181818;stroke-width:0.5;" x1="8" x2="807" y1="366.8575" y2="366.8575"/><ellipse cx="18" cy="380.5059" fill="#84BE84" rx="3" ry="3" style="stroke:#038048;stroke-width:1.0;"/><text fill="#000000" font-family="sans-serif" font-size="14" lengthAdjust="spacing" textLength="775" x="27" y="383.8526">Chart2DContentViewModel(title:string, axisXLabel:string, axisYLabel:string, content:IEnumerable&lt;IRenderData&gt;)</text><ellipse cx="18" cy="396.8028" fill="#84BE84" rx="3" ry="3" style="stroke:#038048;stroke-width:1.0;"/><text fill="#000000" font-family="sans-serif" font-size="14" lengthAdjust="spacing" textLength="108" x="27" y="400.1495">Dispose() : void</text></g><!--class IDisposable--><g id="elem_IDisposable"><rect fill="#F1F1F1" height="48" id="IDisposable" rx="2.5" ry="2.5" style="stroke:#181818;stroke-width:0.5;" width="112" x="351.5" y="47.74"/><ellipse cx="366.5" cy="63.74" fill="#ADD1B2" rx="11" ry="11" style="stroke:#181818;stroke-width:1.0;"/><path d="M369.4688,69.3806 Q368.8906,69.6775 368.25,69.8181 Q367.6094,69.9744 366.9063,69.9744 Q364.4063,69.9744 363.0781,68.3338 Q361.7656,66.6775 361.7656,63.5525 Q361.7656,60.4275 363.0781,58.7713 Q364.4063,57.115 366.9063,57.115 Q367.6094,57.115 368.25,57.2713 Q368.9063,57.4275 369.4688,57.7244 L369.4688,60.4431 Q368.8438,59.865 368.25,59.5994 Q367.6563,59.3181 367.0313,59.3181 Q365.6875,59.3181 365,60.3963 Q364.3125,61.4588 364.3125,63.5525 Q364.3125,65.6463 365,66.7244 Q365.6875,67.7869 367.0313,67.7869 Q367.6563,67.7869 368.25,67.5213 Q368.8438,67.24 369.4688,66.6619 L369.4688,69.3806 Z " fill="#000000"/><text fill="#000000" font-family="sans-serif" font-size="14" lengthAdjust="spacing" textLength="80" x="380.5" y="68.5867">IDisposable</text><line style="stroke:#181818;stroke-width:0.5;" x1="352.5" x2="462.5" y1="79.74" y2="79.74"/><line style="stroke:#181818;stroke-width:0.5;" x1="352.5" x2="462.5" y1="87.74" y2="87.74"/></g><!--class DynamicReconV2Module--><g id="elem_DynamicReconV2Module"><rect codeLine="11" fill="#F1F1F1" height="80.5938" id="DynamicReconV2Module" rx="2.5" ry="2.5" style="stroke:#181818;stroke-width:0.5;" width="429" x="843" y="294.26"/><ellipse cx="975.75" cy="310.26" fill="#ADD1B2" rx="11" ry="11" style="stroke:#181818;stroke-width:1.0;"/><path d="M978.7188,315.9006 Q978.1406,316.1975 977.5,316.3381 Q976.8594,316.4944 976.1563,316.4944 Q973.6563,316.4944 972.3281,314.8538 Q971.0156,313.1975 971.0156,310.0725 Q971.0156,306.9475 972.3281,305.2913 Q973.6563,303.635 976.1563,303.635 Q976.8594,303.635 977.5,303.7913 Q978.1563,303.9475 978.7188,304.2444 L978.7188,306.9631 Q978.0938,306.385 977.5,306.1194 Q976.9063,305.8381 976.2813,305.8381 Q974.9375,305.8381 974.25,306.9163 Q973.5625,307.9788 973.5625,310.0725 Q973.5625,312.1663 974.25,313.2444 Q974.9375,314.3069 976.2813,314.3069 Q976.9063,314.3069 977.5,314.0413 Q978.0938,313.76 978.7188,313.1819 L978.7188,315.9006 Z " fill="#000000"/><text fill="#000000" font-family="sans-serif" font-size="14" lengthAdjust="spacing" textLength="155" x="996.25" y="315.1067">DynamicReconV2Module</text><line style="stroke:#181818;stroke-width:0.5;" x1="844" x2="1271" y1="326.26" y2="326.26"/><line style="stroke:#181818;stroke-width:0.5;" x1="844" x2="1271" y1="334.26" y2="334.26"/><ellipse cx="854" cy="347.9084" fill="#84BE84" rx="3" ry="3" style="stroke:#038048;stroke-width:1.0;"/><text fill="#000000" font-family="sans-serif" font-size="14" lengthAdjust="spacing" textLength="403" x="863" y="351.2551">RegisterTypes(containerRegistry:IContainerRegistry) : void</text><ellipse cx="854" cy="364.2053" fill="#84BE84" rx="3" ry="3" style="stroke:#038048;stroke-width:1.0;"/><text fill="#000000" font-family="sans-serif" font-size="14" lengthAdjust="spacing" textLength="386" x="863" y="367.552">OnInitialized(containerProvider:IContainerProvider) : void</text></g><!--class IModule--><g id="elem_IModule"><rect fill="#F1F1F1" height="48" id="IModule" rx="2.5" ry="2.5" style="stroke:#181818;stroke-width:0.5;" width="86" x="1014.5" y="47.74"/><ellipse cx="1029.5" cy="63.74" fill="#ADD1B2" rx="11" ry="11" style="stroke:#181818;stroke-width:1.0;"/><path d="M1032.4688,69.3806 Q1031.8906,69.6775 1031.25,69.8181 Q1030.6094,69.9744 1029.9063,69.9744 Q1027.4063,69.9744 1026.0781,68.3338 Q1024.7656,66.6775 1024.7656,63.5525 Q1024.7656,60.4275 1026.0781,58.7713 Q1027.4063,57.115 1029.9063,57.115 Q1030.6094,57.115 1031.25,57.2713 Q1031.9063,57.4275 1032.4688,57.7244 L1032.4688,60.4431 Q1031.8438,59.865 1031.25,59.5994 Q1030.6563,59.3181 1030.0313,59.3181 Q1028.6875,59.3181 1028,60.3963 Q1027.3125,61.4588 1027.3125,63.5525 Q1027.3125,65.6463 1028,66.7244 Q1028.6875,67.7869 1030.0313,67.7869 Q1030.6563,67.7869 1031.25,67.5213 Q1031.8438,67.24 1032.4688,66.6619 L1032.4688,69.3806 Z " fill="#000000"/><text fill="#000000" font-family="sans-serif" font-size="14" lengthAdjust="spacing" textLength="54" x="1043.5" y="68.5867">IModule</text><line style="stroke:#181818;stroke-width:0.5;" x1="1015.5" x2="1099.5" y1="79.74" y2="79.74"/><line style="stroke:#181818;stroke-width:0.5;" x1="1015.5" x2="1099.5" y1="87.74" y2="87.74"/></g><!--class DynamicReconV2Params--><g id="elem_DynamicReconV2Params"><rect codeLine="17" fill="#F1F1F1" height="80.5938" id="DynamicReconV2Params" rx="2.5" ry="2.5" style="stroke:#181818;stroke-width:0.5;" width="628" x="1135.5" y="31.44"/><ellipse cx="1367.75" cy="47.44" fill="#ADD1B2" rx="11" ry="11" style="stroke:#181818;stroke-width:1.0;"/><path d="M1370.7188,53.0806 Q1370.1406,53.3775 1369.5,53.5181 Q1368.8594,53.6744 1368.1563,53.6744 Q1365.6563,53.6744 1364.3281,52.0338 Q1363.0156,50.3775 1363.0156,47.2525 Q1363.0156,44.1275 1364.3281,42.4713 Q1365.6563,40.815 1368.1563,40.815 Q1368.8594,40.815 1369.5,40.9713 Q1370.1563,41.1275 1370.7188,41.4244 L1370.7188,44.1431 Q1370.0938,43.565 1369.5,43.2994 Q1368.9063,43.0181 1368.2813,43.0181 Q1366.9375,43.0181 1366.25,44.0963 Q1365.5625,45.1588 1365.5625,47.2525 Q1365.5625,49.3463 1366.25,50.4244 Q1366.9375,51.4869 1368.2813,51.4869 Q1368.9063,51.4869 1369.5,51.2213 Q1370.0938,50.94 1370.7188,50.3619 L1370.7188,53.0806 Z " fill="#000000"/><text fill="#000000" font-family="sans-serif" font-size="14" lengthAdjust="spacing" textLength="155" x="1388.25" y="52.2867">DynamicReconV2Params</text><line style="stroke:#181818;stroke-width:0.5;" x1="1136.5" x2="1762.5" y1="63.44" y2="63.44"/><line style="stroke:#181818;stroke-width:0.5;" x1="1136.5" x2="1762.5" y1="71.44" y2="71.44"/><ellipse cx="1146.5" cy="85.0884" fill="#84BE84" rx="3" ry="3" style="stroke:#038048;stroke-width:1.0;"/><text fill="#000000" font-family="sans-serif" font-size="14" lengthAdjust="spacing" textLength="602" x="1155.5" y="88.4351">Run(ionData:IIonData, options:DynamicReconV2ParamsOptions) : DynamicReconV2Results?</text><ellipse cx="1146.5" cy="101.3853" fill="#84BE84" rx="3" ry="3" style="stroke:#038048;stroke-width:1.0;"/><text fill="#000000" font-family="sans-serif" font-size="14" lengthAdjust="spacing" text-decoration="underline" textLength="200" x="1155.5" y="104.732">LambertW(x:double) : double</text></g><!--class stcData--><g id="elem_stcData"><rect codeLine="21" fill="#F1F1F1" height="80.5938" id="stcData" rx="2.5" ry="2.5" style="stroke:#181818;stroke-width:0.5;" width="96" x="1401.5" y="294.26"/><ellipse cx="1421.45" cy="310.26" fill="#F1F1F1" rx="11" ry="11" style="stroke:#181818;stroke-width:1.0;"/><path d="M1420.9344,310.8225 Q1419.075,310.1194 1418.4188,309.3538 Q1417.7781,308.5725 1417.7781,307.26 Q1417.7781,305.5725 1418.8563,304.6038 Q1419.9344,303.635 1421.8094,303.635 Q1422.6688,303.635 1423.5125,303.8381 Q1424.3719,304.0256 1425.2156,304.4163 L1425.2156,306.8069 Q1424.4344,306.2444 1423.6063,305.9631 Q1422.7938,305.6663 1421.9969,305.6663 Q1421.1219,305.6663 1420.6375,306.0256 Q1420.1688,306.385 1420.1688,307.0413 Q1420.1688,307.5569 1420.5125,307.9006 Q1420.8563,308.2288 1421.95,308.635 L1423.0125,309.0413 Q1424.4969,309.5881 1425.2,310.4944 Q1425.9188,311.4006 1425.9188,312.7756 Q1425.9188,314.6506 1424.8094,315.5725 Q1423.7,316.4944 1421.45,316.4944 Q1420.5281,316.4944 1419.6063,316.2756 Q1418.6844,316.0569 1417.825,315.635 L1417.825,313.1038 Q1418.7938,313.7913 1419.7156,314.135 Q1420.6375,314.4788 1421.5281,314.4788 Q1422.4344,314.4788 1422.9344,314.0725 Q1423.4344,313.6506 1423.4344,312.9163 Q1423.4344,312.3538 1423.0906,311.9475 Q1422.7625,311.5256 1422.1375,311.2756 L1420.9344,310.8225 Z " fill="#000000"/><text fill="#000000" font-family="sans-serif" font-size="14" lengthAdjust="spacing" textLength="53" x="1436.55" y="315.1067">stcData</text><line style="stroke:#181818;stroke-width:0.5;" x1="1402.5" x2="1496.5" y1="326.26" y2="326.26"/><ellipse cx="1412.5" cy="339.9084" fill="none" rx="3" ry="3" style="stroke:#038048;stroke-width:1.0;"/><text fill="#000000" font-family="sans-serif" font-size="14" lengthAdjust="spacing" textLength="53" x="1421.5" y="343.2551">Nat : int</text><ellipse cx="1412.5" cy="356.2053" fill="none" rx="3" ry="3" style="stroke:#038048;stroke-width:1.0;"/><text fill="#000000" font-family="sans-serif" font-size="14" lengthAdjust="spacing" textLength="70" x="1421.5" y="359.552">V : double</text><line style="stroke:#181818;stroke-width:0.5;" x1="1402.5" x2="1496.5" y1="366.8538" y2="366.8538"/></g><!--class DynamicReconV2ParamsNode--><g id="elem_DynamicReconV2ParamsNode"><rect codeLine="27" fill="#F1F1F1" height="194.6719" id="DynamicReconV2ParamsNode" rx="2.5" ry="2.5" style="stroke:#181818;stroke-width:0.5;" width="679" x="1714" y="237.22"/><ellipse cx="1953.25" cy="253.22" fill="#ADD1B2" rx="11" ry="11" style="stroke:#181818;stroke-width:1.0;"/><path d="M1956.2188,258.8606 Q1955.6406,259.1575 1955,259.2981 Q1954.3594,259.4544 1953.6563,259.4544 Q1951.1563,259.4544 1949.8281,257.8138 Q1948.5156,256.1575 1948.5156,253.0325 Q1948.5156,249.9075 1949.8281,248.2513 Q1951.1563,246.595 1953.6563,246.595 Q1954.3594,246.595 1955,246.7513 Q1955.6563,246.9075 1956.2188,247.2044 L1956.2188,249.9231 Q1955.5938,249.345 1955,249.0794 Q1954.4063,248.7981 1953.7813,248.7981 Q1952.4375,248.7981 1951.75,249.8763 Q1951.0625,250.9388 1951.0625,253.0325 Q1951.0625,255.1263 1951.75,256.2044 Q1952.4375,257.2669 1953.7813,257.2669 Q1954.4063,257.2669 1955,257.0013 Q1955.5938,256.72 1956.2188,256.1419 L1956.2188,258.8606 Z " fill="#000000"/><text fill="#000000" font-family="sans-serif" font-size="14" lengthAdjust="spacing" textLength="192" x="1973.75" y="258.0667">DynamicReconV2ParamsNode</text><line style="stroke:#181818;stroke-width:0.5;" x1="1715" x2="2392" y1="269.22" y2="269.22"/><ellipse cx="1725" cy="282.8684" fill="none" rx="3" ry="3" style="stroke:#038048;stroke-width:1.0;"/><text fill="#000000" font-family="sans-serif" font-size="14" lengthAdjust="spacing" text-decoration="underline" textLength="243" x="1734" y="286.2151">DisplayInfo : NodeDisplayInfo &#171;get&#187;</text><ellipse cx="1725" cy="299.1653" fill="none" rx="3" ry="3" style="stroke:#038048;stroke-width:1.0;"/><text fill="#000000" font-family="sans-serif" font-size="14" lengthAdjust="spacing" textLength="653" x="1734" y="302.512">&#171;const&#187; UniqueId : string = "GPM.CustomAnalysis.DynamicReconV2.DynamicReconV2ParamsNode"</text><rect fill="none" height="6" style="stroke:#C82930;stroke-width:1.0;" width="6" x="1722" y="312.4622"/><text fill="#000000" font-family="sans-serif" font-size="14" lengthAdjust="spacing" textLength="394" x="1734" y="318.8089">&#171;readonly&#187; dynamicReconV2Param : DynamicReconV2Params</text><ellipse cx="1725" cy="331.7591" fill="none" rx="3" ry="3" style="stroke:#038048;stroke-width:1.0;"/><text fill="#000000" font-family="sans-serif" font-size="14" lengthAdjust="spacing" textLength="321" x="1734" y="335.1057">Options : DynamicReconV2ParamsOptions &#171;get&#187;</text><line style="stroke:#181818;stroke-width:0.5;" x1="1715" x2="2392" y1="342.4075" y2="342.4075"/><ellipse cx="1725" cy="356.0559" fill="#84BE84" rx="3" ry="3" style="stroke:#038048;stroke-width:1.0;"/><text fill="#000000" font-family="sans-serif" font-size="14" lengthAdjust="spacing" textLength="452" x="1734" y="359.4026">DynamicReconV2ParamsNode(services:IAnalysisNodeBaseServices)</text><ellipse cx="1725" cy="372.3528" fill="#84BE84" rx="3" ry="3" style="stroke:#038048;stroke-width:1.0;"/><text fill="#000000" font-family="sans-serif" font-size="14" lengthAdjust="spacing" textLength="333" x="1734" y="375.6995">&#171;async&#187; Run() : Task&lt;DynamicReconV2Results?&gt;</text><polygon fill="#FFFF44" points="1725,383.6497,1729,387.6497,1725,391.6497,1721,387.6497" style="stroke:#B38D22;stroke-width:1.0;"/><text fill="#000000" font-family="sans-serif" font-size="14" lengthAdjust="spacing" textLength="262" x="1734" y="391.9964">&#171;override&#187; GetSaveContent() : byte[]?</text><polygon fill="#FFFF44" points="1725,399.9466,1729,403.9466,1725,407.9466,1721,403.9466" style="stroke:#B38D22;stroke-width:1.0;"/><text fill="#000000" font-family="sans-serif" font-size="14" lengthAdjust="spacing" textLength="441" x="1734" y="408.2932">&#171;override&#187; OnCreated(eventArgs:NodeCreatedEventArgs) : void</text><rect fill="#F24D5C" height="6" style="stroke:#C82930;stroke-width:1.0;" width="6" x="1722" y="418.2434"/><text fill="#000000" font-family="sans-serif" font-size="14" lengthAdjust="spacing" textLength="563" x="1734" y="424.5901">OptionsOnPropertyChanged(sender:object?, e:PropertyChangedEventArgs) : void</text></g><!--class NodeDisplayInfo--><g id="elem_NodeDisplayInfo"><rect codeLine="38" fill="#F1F1F1" height="80.5938" id="NodeDisplayInfo" rx="2.5" ry="2.5" style="stroke:#181818;stroke-width:0.5;" width="381" x="1639" y="532.64"/><ellipse cx="1769.75" cy="548.64" fill="#ADD1B2" rx="11" ry="11" style="stroke:#181818;stroke-width:1.0;"/><path d="M1772.7188,554.2806 Q1772.1406,554.5775 1771.5,554.7181 Q1770.8594,554.8744 1770.1563,554.8744 Q1767.6563,554.8744 1766.3281,553.2338 Q1765.0156,551.5775 1765.0156,548.4525 Q1765.0156,545.3275 1766.3281,543.6713 Q1767.6563,542.015 1770.1563,542.015 Q1770.8594,542.015 1771.5,542.1713 Q1772.1563,542.3275 1772.7188,542.6244 L1772.7188,545.3431 Q1772.0938,544.765 1771.5,544.4994 Q1770.9063,544.2181 1770.2813,544.2181 Q1768.9375,544.2181 1768.25,545.2963 Q1767.5625,546.3588 1767.5625,548.4525 Q1767.5625,550.5463 1768.25,551.6244 Q1768.9375,552.6869 1770.2813,552.6869 Q1770.9063,552.6869 1771.5,552.4213 Q1772.0938,552.14 1772.7188,551.5619 L1772.7188,554.2806 Z " fill="#000000"/><text fill="#000000" font-family="sans-serif" font-size="14" lengthAdjust="spacing" textLength="111" x="1790.25" y="553.4867">NodeDisplayInfo</text><line style="stroke:#181818;stroke-width:0.5;" x1="1640" x2="2019" y1="564.64" y2="564.64"/><ellipse cx="1650" cy="578.2884" fill="none" rx="3" ry="3" style="stroke:#038048;stroke-width:1.0;"/><text fill="#000000" font-family="sans-serif" font-size="14" lengthAdjust="spacing" textLength="355" x="1659" y="581.6351">Title : string &#171;get&#187; = "GPM Dynamic Recon Params"</text><ellipse cx="1650" cy="594.5853" fill="none" rx="3" ry="3" style="stroke:#038048;stroke-width:1.0;"/><text fill="#000000" font-family="sans-serif" font-size="14" lengthAdjust="spacing" textLength="229" x="1659" y="597.932">Icon : ImageSource? &#171;get&#187; = null</text><line style="stroke:#181818;stroke-width:0.5;" x1="1640" x2="2019" y1="605.2338" y2="605.2338"/></g><!--class AnalysisNodeBase--><g id="elem_AnalysisNodeBase"><rect fill="#F1F1F1" height="48" id="AnalysisNodeBase" rx="2.5" ry="2.5" style="stroke:#181818;stroke-width:0.5;" width="159" x="1974" y="47.74"/><ellipse cx="1989" cy="63.74" fill="#ADD1B2" rx="11" ry="11" style="stroke:#181818;stroke-width:1.0;"/><path d="M1991.9688,69.3806 Q1991.3906,69.6775 1990.75,69.8181 Q1990.1094,69.9744 1989.4063,69.9744 Q1986.9063,69.9744 1985.5781,68.3338 Q1984.2656,66.6775 1984.2656,63.5525 Q1984.2656,60.4275 1985.5781,58.7713 Q1986.9063,57.115 1989.4063,57.115 Q1990.1094,57.115 1990.75,57.2713 Q1991.4063,57.4275 1991.9688,57.7244 L1991.9688,60.4431 Q1991.3438,59.865 1990.75,59.5994 Q1990.1563,59.3181 1989.5313,59.3181 Q1988.1875,59.3181 1987.5,60.3963 Q1986.8125,61.4588 1986.8125,63.5525 Q1986.8125,65.6463 1987.5,66.7244 Q1988.1875,67.7869 1989.5313,67.7869 Q1990.1563,67.7869 1990.75,67.5213 Q1991.3438,67.24 1991.9688,66.6619 L1991.9688,69.3806 Z " fill="#000000"/><text fill="#000000" font-family="sans-serif" font-size="14" lengthAdjust="spacing" textLength="127" x="2003" y="68.5867">AnalysisNodeBase</text><line style="stroke:#181818;stroke-width:0.5;" x1="1975" x2="2132" y1="79.74" y2="79.74"/><line style="stroke:#181818;stroke-width:0.5;" x1="1975" x2="2132" y1="87.74" y2="87.74"/></g><!--class INodeDisplayInfo--><g id="elem_INodeDisplayInfo"><rect fill="#F1F1F1" height="48" id="INodeDisplayInfo" rx="2.5" ry="2.5" style="stroke:#181818;stroke-width:0.5;" width="146" x="1532.5" y="310.56"/><ellipse cx="1547.5" cy="326.56" fill="#ADD1B2" rx="11" ry="11" style="stroke:#181818;stroke-width:1.0;"/><path d="M1550.4688,332.2006 Q1549.8906,332.4975 1549.25,332.6381 Q1548.6094,332.7944 1547.9063,332.7944 Q1545.4063,332.7944 1544.0781,331.1538 Q1542.7656,329.4975 1542.7656,326.3725 Q1542.7656,323.2475 1544.0781,321.5913 Q1545.4063,319.935 1547.9063,319.935 Q1548.6094,319.935 1549.25,320.0913 Q1549.9063,320.2475 1550.4688,320.5444 L1550.4688,323.2631 Q1549.8438,322.685 1549.25,322.4194 Q1548.6563,322.1381 1548.0313,322.1381 Q1546.6875,322.1381 1546,323.2163 Q1545.3125,324.2788 1545.3125,326.3725 Q1545.3125,328.4663 1546,329.5444 Q1546.6875,330.6069 1548.0313,330.6069 Q1548.6563,330.6069 1549.25,330.3413 Q1549.8438,330.06 1550.4688,329.4819 L1550.4688,332.2006 Z " fill="#000000"/><text fill="#000000" font-family="sans-serif" font-size="14" lengthAdjust="spacing" textLength="114" x="1561.5" y="331.4067">INodeDisplayInfo</text><line style="stroke:#181818;stroke-width:0.5;" x1="1533.5" x2="1677.5" y1="342.56" y2="342.56"/><line style="stroke:#181818;stroke-width:0.5;" x1="1533.5" x2="1677.5" y1="350.56" y2="350.56"/></g><!--class DynamicReconV2ParamsNodeMenuFactory--><g id="elem_DynamicReconV2ParamsNodeMenuFactory"><rect codeLine="46" fill="#F1F1F1" height="129.4844" id="DynamicReconV2ParamsNodeMenuFactory" rx="2.5" ry="2.5" style="stroke:#181818;stroke-width:0.5;" width="768" x="2428.5" y="269.82"/><ellipse cx="2667.75" cy="285.82" fill="#ADD1B2" rx="11" ry="11" style="stroke:#181818;stroke-width:1.0;"/><path d="M2670.7188,291.4606 Q2670.1406,291.7575 2669.5,291.8981 Q2668.8594,292.0544 2668.1563,292.0544 Q2665.6563,292.0544 2664.3281,290.4138 Q2663.0156,288.7575 2663.0156,285.6325 Q2663.0156,282.5075 2664.3281,280.8513 Q2665.6563,279.195 2668.1563,279.195 Q2668.8594,279.195 2669.5,279.3513 Q2670.1563,279.5075 2670.7188,279.8044 L2670.7188,282.5231 Q2670.0938,281.945 2669.5,281.6794 Q2668.9063,281.3981 2668.2813,281.3981 Q2666.9375,281.3981 2666.25,282.4763 Q2665.5625,283.5388 2665.5625,285.6325 Q2665.5625,287.7263 2666.25,288.8044 Q2666.9375,289.8669 2668.2813,289.8669 Q2668.9063,289.8669 2669.5,289.6013 Q2670.0938,289.32 2670.7188,288.7419 L2670.7188,291.4606 Z " fill="#000000"/><text fill="#000000" font-family="sans-serif" font-size="14" lengthAdjust="spacing" textLength="281" x="2688.25" y="290.6667">DynamicReconV2ParamsNodeMenuFactory</text><line style="stroke:#181818;stroke-width:0.5;" x1="2429.5" x2="3195.5" y1="301.82" y2="301.82"/><ellipse cx="2439.5" cy="315.4684" fill="none" rx="3" ry="3" style="stroke:#038048;stroke-width:1.0;"/><text fill="#000000" font-family="sans-serif" font-size="14" lengthAdjust="spacing" textLength="742" x="2448.5" y="318.8151">&#171;const&#187; UniqueId : string = "GPM.CustomAnalysis.DynamicReconV2.DynamicReconV2ParamsNodeMenuFactory"</text><rect fill="none" height="6" style="stroke:#C82930;stroke-width:1.0;" width="6" x="2436.5" y="328.7653"/><text fill="#000000" font-family="sans-serif" font-size="14" lengthAdjust="spacing" textLength="336" x="2448.5" y="335.112">&#171;readonly&#187; _eventAggregator : IEventAggregator</text><ellipse cx="2439.5" cy="348.0622" fill="none" rx="3" ry="3" style="stroke:#038048;stroke-width:1.0;"/><text fill="#000000" font-family="sans-serif" font-size="14" lengthAdjust="spacing" textLength="268" x="2448.5" y="351.4089">Location : AnalysisMenuLocation &#171;get&#187;</text><line style="stroke:#181818;stroke-width:0.5;" x1="2429.5" x2="3195.5" y1="358.7106" y2="358.7106"/><ellipse cx="2439.5" cy="372.3591" fill="#84BE84" rx="3" ry="3" style="stroke:#038048;stroke-width:1.0;"/><text fill="#000000" font-family="sans-serif" font-size="14" lengthAdjust="spacing" textLength="531" x="2448.5" y="375.7057">DynamicReconV2ParamsNodeMenuFactory(eventAggregator:IEventAggregator)</text><ellipse cx="2439.5" cy="388.6559" fill="#84BE84" rx="3" ry="3" style="stroke:#038048;stroke-width:1.0;"/><text fill="#000000" font-family="sans-serif" font-size="14" lengthAdjust="spacing" textLength="418" x="2448.5" y="392.0026">CreateMenuItem(context:IAnalysisMenuContext) : IMenuItem</text></g><!--class IAnalysisMenuFactory--><g id="elem_IAnalysisMenuFactory"><rect fill="#F1F1F1" height="48" id="IAnalysisMenuFactory" rx="2.5" ry="2.5" style="stroke:#181818;stroke-width:0.5;" width="179" x="2723" y="47.74"/><ellipse cx="2738" cy="63.74" fill="#ADD1B2" rx="11" ry="11" style="stroke:#181818;stroke-width:1.0;"/><path d="M2740.9688,69.3806 Q2740.3906,69.6775 2739.75,69.8181 Q2739.1094,69.9744 2738.4063,69.9744 Q2735.9063,69.9744 2734.5781,68.3338 Q2733.2656,66.6775 2733.2656,63.5525 Q2733.2656,60.4275 2734.5781,58.7713 Q2735.9063,57.115 2738.4063,57.115 Q2739.1094,57.115 2739.75,57.2713 Q2740.4063,57.4275 2740.9688,57.7244 L2740.9688,60.4431 Q2740.3438,59.865 2739.75,59.5994 Q2739.1563,59.3181 2738.5313,59.3181 Q2737.1875,59.3181 2736.5,60.3963 Q2735.8125,61.4588 2735.8125,63.5525 Q2735.8125,65.6463 2736.5,66.7244 Q2737.1875,67.7869 2738.5313,67.7869 Q2739.1563,67.7869 2739.75,67.5213 Q2740.3438,67.24 2740.9688,66.6619 L2740.9688,69.3806 Z " fill="#000000"/><text fill="#000000" font-family="sans-serif" font-size="14" lengthAdjust="spacing" textLength="147" x="2752" y="68.5867">IAnalysisMenuFactory</text><line style="stroke:#181818;stroke-width:0.5;" x1="2724" x2="2901" y1="79.74" y2="79.74"/><line style="stroke:#181818;stroke-width:0.5;" x1="2724" x2="2901" y1="87.74" y2="87.74"/></g><!--class DynamicReconV2ParamsOptions--><g id="elem_DynamicReconV2ParamsOptions"><rect codeLine="55" fill="#F1F1F1" height="178.375" id="DynamicReconV2ParamsOptions" rx="2.5" ry="2.5" style="stroke:#181818;stroke-width:0.5;" width="533" x="3232" y="245.37"/><ellipse cx="3389.75" cy="261.37" fill="#ADD1B2" rx="11" ry="11" style="stroke:#181818;stroke-width:1.0;"/><path d="M3392.7188,267.0106 Q3392.1406,267.3075 3391.5,267.4481 Q3390.8594,267.6044 3390.1563,267.6044 Q3387.6563,267.6044 3386.3281,265.9638 Q3385.0156,264.3075 3385.0156,261.1825 Q3385.0156,258.0575 3386.3281,256.4013 Q3387.6563,254.745 3390.1563,254.745 Q3390.8594,254.745 3391.5,254.9013 Q3392.1563,255.0575 3392.7188,255.3544 L3392.7188,258.0731 Q3392.0938,257.495 3391.5,257.2294 Q3390.9063,256.9481 3390.2813,256.9481 Q3388.9375,256.9481 3388.25,258.0263 Q3387.5625,259.0888 3387.5625,261.1825 Q3387.5625,263.2763 3388.25,264.3544 Q3388.9375,265.4169 3390.2813,265.4169 Q3390.9063,265.4169 3391.5,265.1513 Q3392.0938,264.87 3392.7188,264.2919 L3392.7188,267.0106 Z " fill="#000000"/><text fill="#000000" font-family="sans-serif" font-size="14" lengthAdjust="spacing" textLength="209" x="3410.25" y="266.2167">DynamicReconV2ParamsOptions</text><line style="stroke:#181818;stroke-width:0.5;" x1="3233" x2="3764" y1="277.37" y2="277.37"/><rect fill="none" height="6" style="stroke:#C82930;stroke-width:1.0;" width="6" x="3240" y="288.0184"/><text fill="#000000" font-family="sans-serif" font-size="14" lengthAdjust="spacing" textLength="139" x="3252" y="294.3651">initialKF : float = 5.6f</text><rect fill="none" height="6" style="stroke:#C82930;stroke-width:1.0;" width="6" x="3240" y="304.3153"/><text fill="#000000" font-family="sans-serif" font-size="14" lengthAdjust="spacing" textLength="143" x="3252" y="310.662">initialKSI : float = 1.6f</text><rect fill="none" height="6" style="stroke:#C82930;stroke-width:1.0;" width="6" x="3240" y="320.6122"/><text fill="#000000" font-family="sans-serif" font-size="14" lengthAdjust="spacing" textLength="507" x="3252" y="326.9589">inputVoltageCSV : string = @"D:\Cameca\R73_03003 Voltage History.csv"</text><rect fill="none" height="6" style="stroke:#C82930;stroke-width:1.0;" width="6" x="3240" y="336.9091"/><text fill="#000000" font-family="sans-serif" font-size="14" lengthAdjust="spacing" textLength="502" x="3252" y="343.2557">outputParameterData : string = @"D:\Cameca\Parameters_Evolution.dat"</text><ellipse cx="3243" cy="356.2059" fill="none" rx="3" ry="3" style="stroke:#038048;stroke-width:1.0;"/><text fill="#000000" font-family="sans-serif" font-size="14" lengthAdjust="spacing" textLength="182" x="3252" y="359.5526">InitialKF : float &#171;get&#187; &#171;set&#187;</text><ellipse cx="3243" cy="372.5028" fill="none" rx="3" ry="3" style="stroke:#038048;stroke-width:1.0;"/><text fill="#000000" font-family="sans-serif" font-size="14" lengthAdjust="spacing" textLength="186" x="3252" y="375.8495">InitialKSI : float &#171;get&#187; &#171;set&#187;</text><ellipse cx="3243" cy="388.7997" fill="none" rx="3" ry="3" style="stroke:#038048;stroke-width:1.0;"/><text fill="#000000" font-family="sans-serif" font-size="14" lengthAdjust="spacing" textLength="256" x="3252" y="392.1464">InputVoltageCSV : string &#171;get&#187; &#171;set&#187;</text><ellipse cx="3243" cy="405.0966" fill="none" rx="3" ry="3" style="stroke:#038048;stroke-width:1.0;"/><text fill="#000000" font-family="sans-serif" font-size="14" lengthAdjust="spacing" textLength="292" x="3252" y="408.4432">OutputParameterData : string &#171;get&#187; &#171;set&#187;</text><line style="stroke:#181818;stroke-width:0.5;" x1="3233" x2="3764" y1="415.745" y2="415.745"/></g><!--class BindableBase--><g id="elem_BindableBase"><rect fill="#F1F1F1" height="48" id="BindableBase" rx="2.5" ry="2.5" style="stroke:#181818;stroke-width:0.5;" width="127" x="3435" y="47.74"/><ellipse cx="3450" cy="63.74" fill="#ADD1B2" rx="11" ry="11" style="stroke:#181818;stroke-width:1.0;"/><path d="M3452.9688,69.3806 Q3452.3906,69.6775 3451.75,69.8181 Q3451.1094,69.9744 3450.4063,69.9744 Q3447.9063,69.9744 3446.5781,68.3338 Q3445.2656,66.6775 3445.2656,63.5525 Q3445.2656,60.4275 3446.5781,58.7713 Q3447.9063,57.115 3450.4063,57.115 Q3451.1094,57.115 3451.75,57.2713 Q3452.4063,57.4275 3452.9688,57.7244 L3452.9688,60.4431 Q3452.3438,59.865 3451.75,59.5994 Q3451.1563,59.3181 3450.5313,59.3181 Q3449.1875,59.3181 3448.5,60.3963 Q3447.8125,61.4588 3447.8125,63.5525 Q3447.8125,65.6463 3448.5,66.7244 Q3449.1875,67.7869 3450.5313,67.7869 Q3451.1563,67.7869 3451.75,67.5213 Q3452.3438,67.24 3452.9688,66.6619 L3452.9688,69.3806 Z " fill="#000000"/><text fill="#000000" font-family="sans-serif" font-size="14" lengthAdjust="spacing" textLength="95" x="3464" y="68.5867">BindableBase</text><line style="stroke:#181818;stroke-width:0.5;" x1="3436" x2="3561" y1="79.74" y2="79.74"/><line style="stroke:#181818;stroke-width:0.5;" x1="3436" x2="3561" y1="87.74" y2="87.74"/></g><!--class DynamicReconV2ParamsView--><g id="elem_DynamicReconV2ParamsView"><rect codeLine="67" fill="#F1F1F1" height="72.5625" id="DynamicReconV2ParamsView" rx="2.5" ry="2.5" style="stroke:#181818;stroke-width:0.5;" width="223" x="3724" y="35.46"/><ellipse cx="3740.8" cy="55.5928" fill="#ADD1B2" rx="11" ry="11" style="stroke:#181818;stroke-width:1.0;"/><path d="M3743.7688,61.2334 Q3743.1906,61.5303 3742.55,61.6709 Q3741.9094,61.8272 3741.2063,61.8272 Q3738.7063,61.8272 3737.3781,60.1866 Q3736.0656,58.5303 3736.0656,55.4053 Q3736.0656,52.2803 3737.3781,50.6241 Q3738.7063,48.9678 3741.2063,48.9678 Q3741.9094,48.9678 3742.55,49.1241 Q3743.2063,49.2803 3743.7688,49.5772 L3743.7688,52.2959 Q3743.1438,51.7178 3742.55,51.4522 Q3741.9563,51.1709 3741.3313,51.1709 Q3739.9875,51.1709 3739.3,52.2491 Q3738.6125,53.3116 3738.6125,55.4053 Q3738.6125,57.4991 3739.3,58.5772 Q3739.9875,59.6397 3741.3313,59.6397 Q3741.9563,59.6397 3742.55,59.3741 Q3743.1438,59.0928 3743.7688,58.5147 L3743.7688,61.2334 Z " fill="#000000"/><text fill="#000000" font-family="sans-serif" font-size="12" font-style="italic" lengthAdjust="spacing" textLength="54" x="3821.7" y="51.5987">&#171;partial&#187;</text><text fill="#000000" font-family="sans-serif" font-size="14" lengthAdjust="spacing" textLength="187" x="3755.2" y="67.4239">DynamicReconV2ParamsView</text><line style="stroke:#181818;stroke-width:0.5;" x1="3725" x2="3946" y1="75.7256" y2="75.7256"/><line style="stroke:#181818;stroke-width:0.5;" x1="3725" x2="3946" y1="83.7256" y2="83.7256"/><ellipse cx="3735" cy="97.3741" fill="#84BE84" rx="3" ry="3" style="stroke:#038048;stroke-width:1.0;"/><text fill="#000000" font-family="sans-serif" font-size="14" lengthAdjust="spacing" textLength="197" x="3744" y="100.7207">DynamicReconV2ParamsView()</text></g><!--class DynamicReconV2ParamsViewModel--><g id="elem_DynamicReconV2ParamsViewModel"><rect codeLine="71" fill="#F1F1F1" height="276.1563" id="DynamicReconV2ParamsViewModel" rx="2.5" ry="2.5" style="stroke:#181818;stroke-width:0.5;" width="829" x="3800" y="196.48"/><ellipse cx="4095.75" cy="212.48" fill="#ADD1B2" rx="11" ry="11" style="stroke:#181818;stroke-width:1.0;"/><path d="M4098.7188,218.1206 Q4098.1406,218.4175 4097.5,218.5581 Q4096.8594,218.7144 4096.1563,218.7144 Q4093.6563,218.7144 4092.3281,217.0738 Q4091.0156,215.4175 4091.0156,212.2925 Q4091.0156,209.1675 4092.3281,207.5113 Q4093.6563,205.855 4096.1563,205.855 Q4096.8594,205.855 4097.5,206.0113 Q4098.1563,206.1675 4098.7188,206.4644 L4098.7188,209.1831 Q4098.0938,208.605 4097.5,208.3394 Q4096.9063,208.0581 4096.2813,208.0581 Q4094.9375,208.0581 4094.25,209.1363 Q4093.5625,210.1988 4093.5625,212.2925 Q4093.5625,214.3863 4094.25,215.4644 Q4094.9375,216.5269 4096.2813,216.5269 Q4096.9063,216.5269 4097.5,216.2613 Q4098.0938,215.98 4098.7188,215.4019 L4098.7188,218.1206 Z " fill="#000000"/><text fill="#000000" font-family="sans-serif" font-size="14" lengthAdjust="spacing" textLength="229" x="4116.25" y="217.3267">DynamicReconV2ParamsViewModel</text><line style="stroke:#181818;stroke-width:0.5;" x1="3801" x2="4628" y1="228.48" y2="228.48"/><ellipse cx="3811" cy="242.1284" fill="none" rx="3" ry="3" style="stroke:#038048;stroke-width:1.0;"/><text fill="#000000" font-family="sans-serif" font-size="14" lengthAdjust="spacing" textLength="690" x="3820" y="245.4751">&#171;const&#187; UniqueId : string = "GPM.CustomAnalysis.DynamicReconV2.DynamicReconV2ParamsViewModel"</text><rect fill="none" height="6" style="stroke:#C82930;stroke-width:1.0;" width="6" x="3808" y="255.4253"/><text fill="#000000" font-family="sans-serif" font-size="14" lengthAdjust="spacing" textLength="358" x="3820" y="261.772">&#171;readonly&#187; renderDataFactory : IRenderDataFactory</text><rect fill="none" height="6" style="stroke:#C82930;stroke-width:1.0;" width="6" x="3808" y="271.7222"/><text fill="#000000" font-family="sans-serif" font-size="14" lengthAdjust="spacing" textLength="210" x="3820" y="278.0689">optionsChanged : bool = false</text><rect fill="none" height="6" style="stroke:#C82930;stroke-width:1.0;" width="6" x="3808" y="288.0191"/><text fill="#000000" font-family="sans-serif" font-size="14" lengthAdjust="spacing" textLength="337" x="3820" y="294.3657">&#171;readonly&#187; runCommand : AsyncRelayCommand</text><ellipse cx="3811" cy="307.3159" fill="none" rx="3" ry="3" style="stroke:#038048;stroke-width:1.0;"/><text fill="#000000" font-family="sans-serif" font-size="14" lengthAdjust="spacing" textLength="231" x="3820" y="310.6626">RunCommand : ICommand &#171;get&#187;</text><ellipse cx="3811" cy="323.6128" fill="none" rx="3" ry="3" style="stroke:#038048;stroke-width:1.0;"/><text fill="#000000" font-family="sans-serif" font-size="14" lengthAdjust="spacing" textLength="321" x="3820" y="326.9595">Options : DynamicReconV2ParamsOptions &#171;get&#187;</text><ellipse cx="3811" cy="339.9097" fill="none" rx="3" ry="3" style="stroke:#038048;stroke-width:1.0;"/><text fill="#000000" font-family="sans-serif" font-size="14" lengthAdjust="spacing" textLength="305" x="3820" y="343.2564">Tabs : ObservableCollection&lt;object&gt; &#171;get&#187;</text><rect fill="none" height="6" style="stroke:#C82930;stroke-width:1.0;" width="6" x="3808" y="353.2066"/><text fill="#000000" font-family="sans-serif" font-size="14" lengthAdjust="spacing" textLength="149" x="3820" y="359.5532">selectedTab : object?</text><ellipse cx="3811" cy="372.5034" fill="none" rx="3" ry="3" style="stroke:#038048;stroke-width:1.0;"/><text fill="#000000" font-family="sans-serif" font-size="14" lengthAdjust="spacing" textLength="239" x="3820" y="375.8501">SelectedTab : object? &#171;get&#187; &#171;set&#187;</text><line style="stroke:#181818;stroke-width:0.5;" x1="3801" x2="4628" y1="383.1519" y2="383.1519"/><ellipse cx="3811" cy="396.8003" fill="#84BE84" rx="3" ry="3" style="stroke:#038048;stroke-width:1.0;"/><text fill="#000000" font-family="sans-serif" font-size="14" lengthAdjust="spacing" textLength="803" x="3820" y="400.147">DynamicReconV2ParamsViewModel(services:IAnalysisViewModelBaseServices, renderDataFactory:IRenderDataFactory)</text><polygon fill="#FFFF44" points="3811,408.0972,3815,412.0972,3811,416.0972,3807,412.0972" style="stroke:#B38D22;stroke-width:1.0;"/><text fill="#000000" font-family="sans-serif" font-size="14" lengthAdjust="spacing" textLength="478" x="3820" y="416.4439">&#171;override&#187; OnCreated(eventArgs:ViewModelCreatedEventArgs) : void</text><rect fill="#F24D5C" height="6" style="stroke:#C82930;stroke-width:1.0;" width="6" x="3808" y="426.3941"/><text fill="#000000" font-family="sans-serif" font-size="14" lengthAdjust="spacing" textLength="166" x="3820" y="432.7407">&#171;async&#187; OnRun() : Task</text><rect fill="#F24D5C" height="6" style="stroke:#C82930;stroke-width:1.0;" width="6" x="3808" y="442.6909"/><text fill="#000000" font-family="sans-serif" font-size="14" lengthAdjust="spacing" textLength="563" x="3820" y="449.0376">OptionsOnPropertyChanged(sender:object?, e:PropertyChangedEventArgs) : void</text><rect fill="#F24D5C" height="6" style="stroke:#C82930;stroke-width:1.0;" width="6" x="3808" y="458.9878"/><text fill="#000000" font-family="sans-serif" font-size="14" lengthAdjust="spacing" textLength="309" x="3820" y="465.3345">UpdateSelectedEventCountsEnabled() : bool</text></g><!--class AnalysisViewModelBase`1--><g id="elem_AnalysisViewModelBase`1"><rect fill="#F1F1F1" height="48" id="AnalysisViewModelBase`1" rx="2.5" ry="2.5" style="stroke:#181818;stroke-width:0.5;" width="212" x="4108.5" y="47.74"/><ellipse cx="4123.5" cy="63.74" fill="#ADD1B2" rx="11" ry="11" style="stroke:#181818;stroke-width:1.0;"/><path d="M4126.4688,69.3806 Q4125.8906,69.6775 4125.25,69.8181 Q4124.6094,69.9744 4123.9063,69.9744 Q4121.4063,69.9744 4120.0781,68.3338 Q4118.7656,66.6775 4118.7656,63.5525 Q4118.7656,60.4275 4120.0781,58.7713 Q4121.4063,57.115 4123.9063,57.115 Q4124.6094,57.115 4125.25,57.2713 Q4125.9063,57.4275 4126.4688,57.7244 L4126.4688,60.4431 Q4125.8438,59.865 4125.25,59.5994 Q4124.6563,59.3181 4124.0313,59.3181 Q4122.6875,59.3181 4122,60.3963 Q4121.3125,61.4588 4121.3125,63.5525 Q4121.3125,65.6463 4122,66.7244 Q4122.6875,67.7869 4124.0313,67.7869 Q4124.6563,67.7869 4125.25,67.5213 Q4125.8438,67.24 4126.4688,66.6619 L4126.4688,69.3806 Z " fill="#000000"/><text fill="#000000" font-family="sans-serif" font-size="14" lengthAdjust="spacing" textLength="180" x="4137.5" y="68.5867">AnalysisViewModelBase`1</text><line style="stroke:#181818;stroke-width:0.5;" x1="4109.5" x2="4319.5" y1="79.74" y2="79.74"/><line style="stroke:#181818;stroke-width:0.5;" x1="4109.5" x2="4319.5" y1="87.74" y2="87.74"/></g><!--class DynamicReconV2Results--><g id="elem_DynamicReconV2Results"><rect codeLine="89" fill="#F1F1F1" height="129.4844" id="DynamicReconV2Results" rx="2.5" ry="2.5" style="stroke:#181818;stroke-width:0.5;" width="342" x="4355.5" y="7"/><ellipse cx="4444.25" cy="23" fill="#ADD1B2" rx="11" ry="11" style="stroke:#181818;stroke-width:1.0;"/><path d="M4447.2188,28.6406 Q4446.6406,28.9375 4446,29.0781 Q4445.3594,29.2344 4444.6563,29.2344 Q4442.1563,29.2344 4440.8281,27.5938 Q4439.5156,25.9375 4439.5156,22.8125 Q4439.5156,19.6875 4440.8281,18.0313 Q4442.1563,16.375 4444.6563,16.375 Q4445.3594,16.375 4446,16.5313 Q4446.6563,16.6875 4447.2188,16.9844 L4447.2188,19.7031 Q4446.5938,19.125 4446,18.8594 Q4445.4063,18.5781 4444.7813,18.5781 Q4443.4375,18.5781 4442.75,19.6563 Q4442.0625,20.7188 4442.0625,22.8125 Q4442.0625,24.9063 4442.75,25.9844 Q4443.4375,27.0469 4444.7813,27.0469 Q4445.4063,27.0469 4446,26.7813 Q4446.5938,26.5 4447.2188,25.9219 L4447.2188,28.6406 Z " fill="#000000"/><text fill="#000000" font-family="sans-serif" font-size="14" lengthAdjust="spacing" textLength="156" x="4464.75" y="27.8467">DynamicReconV2Results</text><line style="stroke:#181818;stroke-width:0.5;" x1="4356.5" x2="4696.5" y1="39" y2="39"/><ellipse cx="4366.5" cy="52.6484" fill="none" rx="3" ry="3" style="stroke:#038048;stroke-width:1.0;"/><text fill="#000000" font-family="sans-serif" font-size="14" lengthAdjust="spacing" textLength="216" x="4375.5" y="55.9951">Voltage : Vector3[] &#171;get&#187; &#171;init&#187;</text><ellipse cx="4366.5" cy="68.9453" fill="none" rx="3" ry="3" style="stroke:#038048;stroke-width:1.0;"/><text fill="#000000" font-family="sans-serif" font-size="14" lengthAdjust="spacing" textLength="239" x="4375.5" y="72.292">FieldFactor : Vector3[] &#171;get&#187; &#171;init&#187;</text><ellipse cx="4366.5" cy="85.2422" fill="none" rx="3" ry="3" style="stroke:#038048;stroke-width:1.0;"/><text fill="#000000" font-family="sans-serif" font-size="14" lengthAdjust="spacing" textLength="185" x="4375.5" y="88.5889">ICF : Vector3[] &#171;get&#187; &#171;init&#187;</text><ellipse cx="4366.5" cy="101.5391" fill="none" rx="3" ry="3" style="stroke:#038048;stroke-width:1.0;"/><text fill="#000000" font-family="sans-serif" font-size="14" lengthAdjust="spacing" textLength="316" x="4375.5" y="104.8857">NormalizedFieldFactor : Vector3[] &#171;get&#187; &#171;init&#187;</text><ellipse cx="4366.5" cy="117.8359" fill="none" rx="3" ry="3" style="stroke:#038048;stroke-width:1.0;"/><text fill="#000000" font-family="sans-serif" font-size="14" lengthAdjust="spacing" textLength="262" x="4375.5" y="121.1826">NormalizedICF : Vector3[] &#171;get&#187; &#171;init&#187;</text><line style="stroke:#181818;stroke-width:0.5;" x1="4356.5" x2="4696.5" y1="128.4844" y2="128.4844"/></g><!--reverse link IDisposable to Chart2DContentViewModel--><g id="link_IDisposable_Chart2DContentViewModel"><path codeLine="9" d="M407.5,113.88 C407.5,150.6 407.5,205.71 407.5,261.2 " fill="none" id="IDisposable-backto-Chart2DContentViewModel" style="stroke:#181818;stroke-width:1.0;"/><polygon fill="none" points="407.5,95.88,401.5,113.88,413.5,113.88,407.5,95.88" style="stroke:#181818;stroke-width:1.0;"/></g><!--reverse link IModule to DynamicReconV2Module--><g id="link_IModule_DynamicReconV2Module"><path codeLine="15" d="M1057.5,113.88 C1057.5,158.52 1057.5,238.93 1057.5,294.1 " fill="none" id="IModule-backto-DynamicReconV2Module" style="stroke:#181818;stroke-width:1.0;"/><polygon fill="none" points="1057.5,95.88,1051.5,113.88,1063.5,113.88,1057.5,95.88" style="stroke:#181818;stroke-width:1.0;"/></g><!--reverse link DynamicReconV2Params to stcData--><g id="link_DynamicReconV2Params_stcData"><path codeLine="25" d="M1449.5,128.35 C1449.5,177.52 1449.5,244.86 1449.5,294 " fill="none" id="DynamicReconV2Params-backto-stcData" style="stroke:#181818;stroke-width:1.0;"/><ellipse cx="1449.5" cy="120.35" fill="#FFFFFF" rx="8" ry="8" style="stroke:#181818;stroke-width:1.0;"/><line style="stroke:#181818;stroke-width:1.0;" x1="1449.5" x2="1449.5" y1="128.35" y2="112.35"/><line style="stroke:#181818;stroke-width:1.0;" x1="1441.5" x2="1457.5" y1="120.35" y2="120.35"/></g><!--reverse link AnalysisNodeBase to DynamicReconV2ParamsNode--><g id="link_AnalysisNodeBase_DynamicReconV2ParamsNode"><path codeLine="42" d="M2053.5,113.88 C2053.5,145.43 2053.5,185.83 2053.5,236.85 " fill="none" id="AnalysisNodeBase-backto-DynamicReconV2ParamsNode" style="stroke:#181818;stroke-width:1.0;"/><polygon fill="none" points="2053.5,95.88,2047.5,113.88,2059.5,113.88,2053.5,95.88" style="stroke:#181818;stroke-width:1.0;"/></g><!--reverse link DynamicReconV2ParamsNode to NodeDisplayInfo--><g id="link_DynamicReconV2ParamsNode_NodeDisplayInfo"><path codeLine="43" d="M1950.7363,443.9954 C1917.6363,478.9354 1893.09,504.83 1867.2,532.15 " fill="none" id="DynamicReconV2ParamsNode-backto-NodeDisplayInfo" style="stroke:#181818;stroke-width:1.0;"/><ellipse cx="1956.2381" cy="438.1877" fill="#FFFFFF" rx="8" ry="8" style="stroke:#181818;stroke-width:1.0;"/><line style="stroke:#181818;stroke-width:1.0;" x1="1950.7363" x2="1961.74" y1="443.9954" y2="432.38"/><line style="stroke:#181818;stroke-width:1.0;" x1="1950.4304" x2="1962.0458" y1="432.6858" y2="443.6896"/></g><!--reverse link INodeDisplayInfo to NodeDisplayInfo--><g id="link_INodeDisplayInfo_NodeDisplayInfo"><path codeLine="44" d="M1626.3316,374.6599 C1642.0716,403.4199 1662.83,437.05 1696.5,472.64 C1717.39,494.72 1743.66,515.46 1767.31,532.22 " fill="none" id="INodeDisplayInfo-backto-NodeDisplayInfo" style="stroke:#181818;stroke-width:1.0;"/><polygon fill="none" points="1617.69,358.87,1621.0683,377.5405,1631.595,371.7794,1617.69,358.87" style="stroke:#181818;stroke-width:1.0;"/></g><!--reverse link IAnalysisMenuFactory to DynamicReconV2ParamsNodeMenuFactory--><g id="link_IAnalysisMenuFactory_DynamicReconV2ParamsNodeMenuFactory"><path codeLine="53" d="M2812.5,113.88 C2812.5,152.47 2812.5,213.25 2812.5,269.54 " fill="none" id="IAnalysisMenuFactory-backto-DynamicReconV2ParamsNodeMenuFactory" style="stroke:#181818;stroke-width:1.0;"/><polygon fill="none" points="2812.5,95.88,2806.5,113.88,2818.5,113.88,2812.5,95.88" style="stroke:#181818;stroke-width:1.0;"/></g><!--reverse link BindableBase to DynamicReconV2ParamsOptions--><g id="link_BindableBase_DynamicReconV2ParamsOptions"><path codeLine="65" d="M3498.5,113.88 C3498.5,147.11 3498.5,192.14 3498.5,244.94 " fill="none" id="BindableBase-backto-DynamicReconV2ParamsOptions" style="stroke:#181818;stroke-width:1.0;"/><polygon fill="none" points="3498.5,95.88,3492.5,113.88,3504.5,113.88,3498.5,95.88" style="stroke:#181818;stroke-width:1.0;"/></g><!--reverse link AnalysisViewModelBase`1 to DynamicReconV2ParamsViewModel--><g id="link_AnalysisViewModelBase`1_DynamicReconV2ParamsViewModel"><path codeLine="87" d="M4214.5,113.88 C4214.5,137.2 4214.5,157.19 4214.5,196.02 " fill="none" id="AnalysisViewModelBase`1-backto-DynamicReconV2ParamsViewModel" style="stroke:#181818;stroke-width:1.0;"/><polygon fill="none" points="4214.5,95.88,4208.5,113.88,4220.5,113.88,4214.5,95.88" style="stroke:#181818;stroke-width:1.0;"/><text fill="#000000" font-family="sans-serif" font-size="13" lengthAdjust="spacing" textLength="200" x="3990.125" y="115.6753">&lt;DynamicReconV2ParamsNode&gt;</text></g><!--SRC=[jLTRRzis57xtho2y5njDZ7J1Da1mawLoqWbDui1ElHLjaT7IYSTD8ZsHygAv_kyxDAch9JK5LZ_PvtpdVk6n7r8fYVi7ZTNt4rTm1Lmj6Fnp8m88oRP7yFE2t3CL0d68L37ZAp8Uhq2TdLdcnHEJlrtJ9U8x4Eyx4JFW0SGJgYWYF5U48VYA2Jxs2ivPJQR5wO7IpZh6p16XkNSLqligoJTA7E-I9n74T1b2nVJGsfmmkHOI1aDqSoDOqDlrF4FJ8cJy-VYupQzUpz_dUf9o6Z5_1cWJ6GcARVCih9XK4D-dQv03xHDb7693ZbF7S-kat0-ZOCezpXIZ8ViNWaB1NIms34CfASX8vK2iD_iW3hriyl-EnZIIXVy97s3HTCOSppDVZeXOwqfAvr1mQZZQXp9p1Z89bJotMhTIKSNy7RccqH9YzUlWoGb4WldMWkORke_fI7o5xUNlsoZpwPOgH36kxEz5MQOXbXSOlDNH7l4j5ZItaFkd6o6agSSV1HhHc3AbshpZCIgJ-9kyu-pl1BoW68rNfF_cxcRa9bA9w8BJC9LCZifUZ9fTwk-L7wFo66WWU9YY_g0EhMNRY6SDP2hI2CburK2QFHb8Y3VC1-buMG2Q_9fAc5lECCy4bIdtqLFTFhgazrJ-DMvg26FpEnGH6uXZx5-KUWDgJZTWnsslO9ag-F3fl0azvIxcHk5qm0RX5_5AEjepIxtCY9N1EixoCkKuDslimHI7dAzGYzpl24Si_yI5TNv4mAaX3ZNkR5lL6wHxsTgkoF9DzeaX9kDzA-bf4kxFYAvWBfBOX_EIE4_248tNwt4uxqKPUosjhuUavdxFEsZupmsepf6w0PvSKL-9ECspyKq6fMIeSMOUJ7EiLZ6iAA9qKY-hfCxsB-aVr5GvTKNP79WEr9AUWcY_lE595VEZEQuXwbRoCgGLlnO-rJsAhB94Jiwc5lTycP-bkwC9Ih3sycNBOMlJoSmxzFOA_NaC1IxXL-I7qO-FDVRSA_5VbldhH2r4gB2JtVcYNFAV-nFdeqiZyEd7sK-d3oUd9oUdn6B9B_WiegCZNswooef4eRAzcw3o8wDHNmwI3vSR4IOwfb50LJvW1r5bupKUoz9Iz0x3QmEsnDaCdtQ5KXVPzLup7kYxf6lCRU7QAwiF6DIvngC6GqBzszRMrz3140rtAgkUbl_xVESc6YSxpc-whFDnb6PrOjOv9ZTsa-k7HOWGlNgaeOH6xGbtHHHHhi4N-bcR0Mu-Iokkf0BaPL-hh-hNlyFtTAdXqwL-UNNHIqUqUPsgzpDUEQ3v4A0a2jeNp6gRD_5QchAZ10rdGCuhtm97XtLn3gioVEw3djlumgjUd1vJNZu-li6ZRpI-M-CoWIovUvGh4gxa9TSb2yprWas6CzHlpDZlB_kaFsvUr6VzjY7l_1DYhwjy8hDLwf05wBoVVlXKghpUt7dfhnY4WQdES-2UU_KSsAs88_CNvYlr5u9VjBJx3m00]--></g></svg>